Coordinates
version=1
nRows=11
nColumns=36
inDegrees=yes

Units are S.I. units (second, meters, Newtons, ...)
If the header above contains a line with 'inDegrees', this indicates whether rotational values are in degrees (yes) or radians (no).

endheader
time	pelvis_tilt	pelvis_list	pelvis_rotation	pelvis_tx	pelvis_ty	pelvis_tz	hip_flexion_r	hip_adduction_r	hip_rotation_r	knee_angle_r	knee_angle_r_beta	ankle_angle_r	subtalar_angle_r	mtp_angle_r	hip_flexion_l	hip_adduction_l	hip_rotation_l	knee_angle_l	knee_angle_l_beta	ankle_angle_l	subtalar_angle_l	mtp_angle_l	lumbar_extension	lumbar_bending	lumbar_rotation	arm_flex_r	arm_add_r	arm_rot_r	elbow_flex_r	pro_sup_r	arm_flex_l	arm_add_l	arm_rot_l	elbow_flex_l	pro_sup_l
      0.79000000	     -4.70018811	      1.37531776	      1.56401422	     -0.43816408	      1.14653432	     -0.56895731	     23.59862363	     -5.90612314	     -4.17070459	     10.80031272	      0.18850102	    -26.81919437	     -5.47699120	     -6.61372754	     22.41140731	     -3.95338640	     -8.22867403	      7.94121902	      0.13860042	    -29.36811871	      2.58653792	     -6.61372754	    -18.56231982	     -4.01822441	     -4.52197408	    -47.66625562	    -23.42701681	    -38.09888468	    138.61551783	     99.91732857	    -46.38595504	    -25.17277990	    -37.85114402	    142.73738504	    110.22958994
      0.80000000	     -4.38076061	      1.18206832	      1.93472831	     -0.42715120	      1.12440448	     -0.56921026	     23.72463190	     -6.00241489	     -4.49397793	     11.43639565	      0.19960276	    -26.82547278	     -5.61830978	     -6.62857799	     22.47489011	     -4.17598948	     -7.48232077	      8.43106194	      0.14714979	    -29.52067733	      2.98211316	     -6.62857799	    -18.68785756	     -3.82394028	     -4.70528047	    -49.78627414	    -22.73223627	    -38.55359197	    138.99012874	    100.01598236	    -47.88197199	    -25.17306999	    -39.56642426	    143.95289904	    110.16297793
      0.81000000	     -4.03227273	      0.96719519	      2.11660580	     -0.41621153	      1.10143046	     -0.56938564	     23.89514087	     -5.99561267	     -4.52277072	     12.20980425	      0.21310129	    -26.97362587	     -5.49267051	     -6.64238206	     22.61171665	     -4.49452304	     -7.02062853	      9.25816155	      0.16158540	    -29.94414306	      2.91831478	     -6.64238206	    -18.84906786	     -3.64203116	     -4.64173367	    -51.61107100	    -22.00593356	    -38.55253325	    139.17359008	     99.92153981	    -49.00769685	    -25.10575416	    -40.58940312	    145.02610950	    109.98181082
      0.82000000	     -3.83244645	      0.75574811	      2.35084825	     -0.40557110	      1.07735616	     -0.56961254	     24.35984472	     -6.02457691	     -4.65493652	     13.36398114	      0.23324547	    -26.83621330	     -5.38239578	     -6.67013915	     23.15751151	     -4.77585978	     -6.57180403	     10.67216550	      0.18626443	    -30.59721656	      1.97611798	     -6.67013915	    -18.92559708	     -3.44879969	     -4.61165024	    -53.00753966	    -20.92560216	    -38.46788307	    139.14858915	     99.74901362	    -49.77468825	    -24.73406118	    -41.41003406	    145.82663784	    109.77881173
      0.83000000	     -3.55380717	      0.55088253	      2.67245918	     -0.39526175	      1.05249578	     -0.56990346	     24.80705832	     -6.07813717	     -4.63537389	     14.73288792	      0.25713740	    -26.69728799	     -4.77954198	     -6.83735730	     23.80156228	     -4.96928959	     -5.73391700	     12.44274475	      0.21716686	    -31.68260670	      0.88012401	     -6.83735730	    -19.15256627	     -3.23058550	     -4.55782889	    -53.96030766	    -19.76290978	    -37.98071161	    138.79016110	    100.94603616	    -49.96688241	    -24.53983239	    -41.39649947	    146.24217769	    111.68813218
      0.84000000	     -3.22137181	      0.36503558	      2.97299115	     -0.38513894	      1.02679491	     -0.57014293	     25.29586317	     -6.10170218	     -4.31336333	     16.14261207	      0.28174173	    -27.13561714	     -4.23021021	     -6.86419996	     24.62853453	     -5.19076393	     -5.24916106	     14.51251837	      0.25329123	    -32.60317277	      1.10546398	     -6.86419996	    -19.48793041	     -3.04411638	     -4.51578091	    -54.23546762	    -18.60479183	    -36.92256125	    138.35554070	    100.27511192	    -49.66296452	    -24.27740427	    -40.61075986	    146.78672822	    110.83549042
      0.85000000	     -3.30461820	      0.21963970	      3.24731885	     -0.37539431	      1.00008052	     -0.57046003	     26.39100889	     -6.13682809	     -3.71901084	     18.07857443	      0.31553065	    -26.43749950	     -4.94529987	     -6.91660855	     25.97342174	     -5.17950101	     -4.21165145	     17.00764684	      0.29683944	    -32.54607926	     -0.88158055	     -6.91660855	    -19.33041164	     -2.97064071	     -4.52322429	    -53.90971602	    -17.48799272	    -35.35059638	    137.38174303	     99.76860114	    -48.82653403	    -23.84757686	    -38.90654928	    146.76830473	    110.50464076
      0.86000000	     -3.43153777	      0.15695276	      3.56657678	     -0.36651772	      0.97290708	     -0.57067953	     27.80065054	     -6.24863543	     -2.92077403	     22.01427330	      0.38422155	    -19.30631004	     -6.67680500	     -6.99313868	     27.67931352	     -5.04962922	     -3.32902135	     21.77354903	      0.38002012	    -25.06170303	     -3.48379828	     -6.99313868	    -19.25922753	     -3.05584832	     -4.62335777	    -52.74034477	    -16.56908424	    -32.95549764	    136.22588717	     97.22744645	    -47.22176029	    -23.55315034	    -36.29522468	    146.92543583	    107.27897558
      0.87000000	     -3.70585591	      0.04261183	      3.92973870	     -0.35858259	      0.94471244	     -0.57095403	     29.62457005	     -6.37007455	     -2.28297757	     27.98434176	      0.48841890	     -4.41927820	     -6.76679300	     -7.08404532	     29.86388466	     -4.84106864	     -2.06741520	     28.82380264	      0.50307026	     -9.27729693	     -5.34716193	     -7.08404532	    -19.14079715	     -3.04098093	     -4.65543178	    -51.02544585	    -15.63266605	    -30.53667111	    134.84921110	     95.99631926	    -44.72717914	    -23.32749628	    -33.44914390	    146.37496788	    106.79519655
      0.88000000	     -4.15670711	     -0.22711972	      4.16353300	     -0.35280153	      0.91656610	     -0.57092455	     32.40842973	     -6.14004136	     -1.28913515	     34.95863049	      0.61014320	      8.06226424	     -8.36797075	     -7.14176567	     32.70905401	     -4.64946226	     -0.52749762	     36.19942930	      0.63179923	      4.49514589	     -7.83455308	     -7.14176567	    -19.01553202	     -2.91838918	     -4.59588599	    -48.34941077	    -15.02735012	    -27.82460882	    132.98618754	     94.72598365	    -41.32148772	    -23.15518008	    -30.12259517	    145.34952865	    105.73743520
      0.89000000	     -5.04452111	     -0.43647751	      4.26457439	     -0.35023327	      0.89005744	     -0.57077032	     37.33183925	     -6.03124923	     -0.29809897	     43.23769805	      0.75464019	     15.12791276	     -8.84138453	     -7.23183431	     36.85519095	     -4.40643525	      0.95572650	     43.30271676	      0.75577498	     12.92722767	     -8.70342138	     -7.23183431	    -18.77599961	     -2.89055256	     -4.33768081	    -44.42954706	    -14.28053190	    -25.25499052	    130.14230875	     99.90298207	    -36.38195743	    -23.10937144	    -26.64482798	    142.54727743	    112.68741071
